# xmcd CD database file
#
# Track frame offsets:
#	150
#	21317
#	33423
#	48032
#	58507
#	109393
#	125731
#	140069
#	166891
#	191400
#	216583
#	249091
#	276277
#	298712
#
# Disc length: 4555 seconds
#
# Revision: 0
# Processed by: cddbd v1.5.2PL0 Copyright (c) Steve Scherf et al.
# Submitted via: CDex 1.70beta2
#
DISCID=d711c90e
DTITLE=Various Artist - Guitar: greatest works CD 02
DYEAR=2008
DGENRE=Jazz
TTITLE0=REMO PALMIERI w RED NORVO SKY PAINTERS - Blue Skies
TTITLE1=CHUCK WAYNE w GEORGE SHEARING QUINTET - Jumpin' With Symphony Sid
TTITLE2=JOHNNY SMITH QUINTET - Moonlight In Vermont
TTITLE3=JOHNNY SMITH QUINTET - Sometimes I'm Happy
TTITLE4=BARNEY KESSEL - Let's Cook
TTITLE5=JIMMY RANEY QUARTET - Body And Soul
TTITLE6=TAL FARLOW w RED NORVO QUINTET - Blue Room
TTITLE7=TAL FARLOW w ARTIE SHAW GRAMERCY FIVE - When The Quail Comes To St. Quentin
TTITLE8=TAL FARLOW - Out Of Nowhere
TTITLE9=HERB ELLIS w OSCAR PETERSON TRIO - How About You
TTITLE10=HERB ELLIS - Blues For Junior
TTITLE11=HERB ELLIS - Soft Winds
TTITLE12=MUNDELL LOVE - I Loves You Porgy
TTITLE13=BARNEY KESSEL ALL STARS - Jersey Bounce
EXTD=YEAR: 2008
EXTT0=
EXTT1=
EXTT2=
EXTT3=
EXTT4=
EXTT5=
EXTT6=
EXTT7=
EXTT8=
EXTT9=
EXTT10=
EXTT11=
EXTT12=
EXTT13=
PLAYORDER=
